<?xml version="1.0" standalone="no"?>
<!DOCTYPE svg PUBLIC "-//W3C//DTD SVG 20010904//EN"
 "http://www.w3.org/TR/2001/REC-SVG-20010904/DTD/svg10.dtd">
<svg version="1.0" xmlns="http://www.w3.org/2000/svg"
 width="100.000000pt" height="100.000000pt" viewBox="0 0 100.000000 100.000000"
 preserveAspectRatio="xMidYMid meet">

<g transform="translate(0.000000,100.000000) scale(0.100000,-0.100000)"
fill="#000000" stroke="none">
<path d="M0 500 l0 -500 500 0 500 0 0 500 0 500 -500 0 -500 0 0 -500z m173
40 c18 -38 35 -70 38 -70 3 0 19 32 36 70 24 54 36 70 52 70 20 0 21 -5 21
-110 0 -103 -1 -110 -20 -110 -18 0 -20 7 -21 68 l0 67 -27 -52 c-15 -31 -33
-53 -42 -53 -9 0 -27 22 -42 53 l-27 52 0 -67 c-1 -61 -3 -68 -21 -68 -19 0
-20 7 -20 110 0 105 1 110 21 110 16 0 28 -16 52 -70z m367 45 c0 -20 5 -25
25 -25 24 0 38 -28 15 -31 -5 -1 -16 -2 -22 -3 -9 -1 -13 -18 -13 -51 0 -46 2
-50 23 -47 32 3 26 -32 -6 -36 -44 -6 -52 13 -52 119 0 81 3 99 15 99 9 0 15
-9 15 -25z m-87 -37 c18 -14 39 -73 29 -82 -3 -3 -27 -6 -54 -6 -26 0 -48 -4
-48 -9 0 -19 30 -33 59 -26 35 7 50 -9 22 -24 -33 -18 -71 -12 -98 15 -63 63
19 184 90 132z m267 2 c22 -14 3 -25 -36 -21 -43 3 -48 -25 -6 -35 39 -10 52
-23 52 -55 0 -30 -23 -49 -60 -49 -31 0 -60 18 -54 34 4 11 11 12 35 3 21 -8
32 -8 40 0 15 15 3 33 -23 33 -26 0 -58 27 -58 48 0 41 70 68 110 42z m155
-15 c34 -33 34 -87 0 -120 -71 -72 -168 38 -104 119 27 34 71 35 104 1z"/>
<path d="M392 518 c-20 -20 -14 -28 23 -28 19 0 35 4 35 8 0 12 -22 32 -35 32
-6 0 -16 -5 -23 -12z"/>
<path d="M802 518 c-17 -17 -15 -73 4 -89 23 -19 48 1 52 40 5 50 -27 78 -56
49z"/>
</g>
</svg>
